<svg width="235" height="50" viewBox="0 0 235 50" fill="none" xmlns="http://www.w3.org/2000/svg">
<g clip-path="url(#clip0)">
<path d="M0 0H174.707V50H0V0Z" fill="#F43A3C"/>
<path d="M21.432 18.634C21.432 18.527 21.504 18.454 21.612 18.454H26.387C29.054 18.454 30.297 19.769 30.297 21.716C30.297 23.049 29.685 23.878 28.874 24.329V24.359C29.684 24.664 30.514 25.673 30.514 27.132C30.514 29.546 28.91 30.699 26.261 30.699H21.62C21.512 30.699 21.44 30.629 21.44 30.519V18.63L21.432 18.634ZM26.062 23.464C27.072 23.464 27.667 22.924 27.667 22.024C27.667 21.122 27.073 20.599 26.063 20.599H24.19C24.117 20.599 24.08 20.629 24.08 20.699V23.349C24.08 23.421 24.117 23.459 24.19 23.459H26.063L26.062 23.464ZM24.189 28.564H26.199C27.279 28.564 27.857 27.987 27.857 27.032C27.857 26.094 27.281 25.5 26.2 25.5H24.19C24.117 25.5 24.08 25.536 24.08 25.608V28.455C24.08 28.527 24.117 28.563 24.19 28.563L24.189 28.564ZM36.359 26.204V18.634C36.359 18.527 36.431 18.454 36.539 18.454H38.829C38.936 18.454 39.009 18.526 39.009 18.634V26.276C39.009 27.736 39.819 28.564 41.063 28.564C42.286 28.564 43.097 27.734 43.097 26.276V18.634C43.097 18.527 43.169 18.454 43.277 18.454H45.567C45.674 18.454 45.747 18.526 45.747 18.634V26.204C45.747 29.248 43.8 30.906 41.061 30.906C38.301 30.906 36.356 29.248 36.356 26.203L36.359 26.204ZM52.031 18.634C52.031 18.527 52.103 18.454 52.211 18.454H54.501C54.608 18.454 54.681 18.526 54.681 18.634V30.528C54.681 30.636 54.608 30.708 54.501 30.708H52.211C52.103 30.708 52.031 30.638 52.031 30.528V18.634ZM61.021 18.634C61.021 18.527 61.091 18.454 61.201 18.454H63.491C63.597 18.454 63.671 18.526 63.671 18.634V28.239C63.671 28.309 63.705 28.339 63.777 28.339H69.183C69.289 28.339 69.363 28.409 69.363 28.519V30.519C69.363 30.629 69.29 30.699 69.183 30.699H61.2C61.093 30.699 61.02 30.629 61.02 30.519V18.63L61.021 18.634ZM76.01 30.708C75.903 30.708 75.83 30.636 75.83 30.528V20.923C75.83 20.851 75.795 20.815 75.723 20.815H72.623C72.515 20.815 72.443 20.743 72.443 20.635V18.635C72.443 18.527 72.515 18.455 72.623 18.455H81.687C81.794 18.455 81.867 18.525 81.867 18.635V20.635C81.867 20.742 81.794 20.815 81.687 20.815H78.587C78.514 20.815 78.477 20.851 78.477 20.923V30.527C78.477 30.635 78.407 30.707 78.297 30.707H76.01V30.708ZM104.027 30.708C103.899 30.708 103.827 30.636 103.791 30.528L101.668 22.905H101.63L99.485 30.527C99.448 30.635 99.375 30.707 99.25 30.707H97.45C97.34 30.707 97.27 30.637 97.233 30.527L94.063 18.633C94.043 18.526 94.08 18.453 94.206 18.453H96.531C96.659 18.453 96.731 18.525 96.749 18.633L98.514 26.328H98.551L100.641 18.633C100.676 18.526 100.751 18.453 100.874 18.453H102.444C102.551 18.453 102.624 18.525 102.659 18.633L104.822 26.328H104.862L106.554 18.633C106.574 18.507 106.644 18.453 106.771 18.453H109.076C109.202 18.453 109.238 18.525 109.22 18.633L106.067 30.527C106.049 30.635 105.959 30.707 105.833 30.707H104.03L104.027 30.708ZM114.597 18.634C114.597 18.527 114.667 18.454 114.777 18.454H117.064C117.172 18.454 117.244 18.526 117.244 18.634V30.528C117.244 30.636 117.172 30.708 117.064 30.708H114.774C114.667 30.708 114.594 30.638 114.594 30.528V18.634H114.597ZM126.287 30.708C126.177 30.708 126.107 30.636 126.107 30.528V20.923C126.107 20.851 126.071 20.815 125.997 20.815H122.897C122.873 20.8161 122.849 20.8123 122.827 20.8036C122.804 20.795 122.784 20.7818 122.767 20.7648C122.75 20.7479 122.737 20.7276 122.728 20.7052C122.72 20.6829 122.716 20.6589 122.717 20.635V18.635C122.717 18.527 122.791 18.455 122.897 18.455H131.963C132.071 18.455 132.143 18.525 132.143 18.635V20.635C132.143 20.742 132.073 20.815 131.963 20.815H128.863C128.791 20.815 128.756 20.851 128.756 20.923V30.527C128.756 30.635 128.683 30.707 128.576 30.707H126.286L126.287 30.708ZM137.617 18.634C137.617 18.527 137.689 18.454 137.797 18.454H140.087C140.194 18.454 140.267 18.526 140.267 18.634V23.23C140.267 23.302 140.302 23.338 140.374 23.338H144.374C144.446 23.338 144.484 23.302 144.484 23.23V18.634C144.484 18.527 144.554 18.454 144.664 18.454H146.952C147.059 18.454 147.132 18.526 147.132 18.634V30.528C147.132 30.636 147.06 30.708 146.952 30.708H144.662C144.556 30.708 144.482 30.638 144.482 30.528V25.808C144.482 25.735 144.446 25.698 144.375 25.698H140.372C140.3 25.698 140.265 25.735 140.265 25.808V30.528C140.265 30.636 140.195 30.708 140.085 30.708H137.8C137.692 30.708 137.62 30.638 137.62 30.528V18.634H137.617Z" fill="white"/>
<path d="M174.707 0H234.525V50H174.707V0Z" fill="#D35B09"/>
<path d="M212.52 18.386C210.63 16.653 207.565 16.653 205.673 18.386L204.391 19.564L203.111 18.386C201.221 16.653 198.161 16.653 196.271 18.386C194.141 20.336 194.141 23.501 196.271 25.451L204.398 32.921L212.528 25.458C214.651 23.508 214.651 20.344 212.528 18.394L212.52 18.386Z" fill="white"/>
<path d="M174.707 0H234.525V50H174.707V0Z" fill="#D6161C"/>
<path d="M212.52 18.386C210.63 16.653 207.565 16.653 205.673 18.386L204.391 19.564L203.111 18.386C201.221 16.653 198.161 16.653 196.271 18.386C194.141 20.336 194.141 23.501 196.271 25.451L204.398 32.921L212.528 25.458C214.651 23.508 214.651 20.344 212.528 18.394L212.52 18.386Z" fill="white"/>
</g>
<defs>
<clipPath id="clip0">
<rect width="234.525" height="50" fill="white"/>
</clipPath>
</defs>
</svg>
