<svg width="257" height="36" viewBox="0 0 257 36" fill="none" xmlns="http://www.w3.org/2000/svg">
<g clip-path="url(#clip0)">
<path d="M93 0H202V35H93V0Z" fill="#80119B"/>
<path d="M111.455 13.681C110.877 13.681 110.401 13.8 110.027 14.038C109.653 14.276 109.466 14.6387 109.466 15.126C109.466 15.602 109.653 15.9703 110.027 16.231C110.401 16.4803 111.195 16.7523 112.407 17.047C113.631 17.3417 114.549 17.7553 115.161 18.288C115.785 18.8207 116.096 19.6083 116.096 20.651C116.096 21.6823 115.705 22.521 114.923 23.167C114.141 23.813 113.116 24.136 111.846 24.136C109.988 24.136 108.339 23.4957 106.899 22.215L108.157 20.702C109.359 21.7447 110.605 22.266 111.897 22.266C112.543 22.266 113.053 22.13 113.427 21.858C113.813 21.5747 114.005 21.2063 114.005 20.753C114.005 20.2883 113.824 19.9313 113.461 19.682C113.11 19.4213 112.498 19.189 111.625 18.985C110.753 18.7697 110.09 18.577 109.636 18.407C109.183 18.2257 108.781 17.9933 108.429 17.71C107.727 17.1773 107.375 16.3613 107.375 15.262C107.375 14.1627 107.772 13.3183 108.565 12.729C109.37 12.1283 110.362 11.828 111.54 11.828C112.3 11.828 113.053 11.9527 113.801 12.202C114.549 12.4513 115.195 12.8027 115.739 13.256L114.668 14.769C114.317 14.4517 113.841 14.191 113.24 13.987C112.64 13.783 112.045 13.681 111.455 13.681ZM118.916 24V12.117H120.922V17.268H126.821V12.117H128.827V24H126.821V19.138H120.922V24H118.916ZM132.471 12.117H134.477V24H132.471V12.117ZM140.113 24H138.107V12.117H141.235L144.822 19.58L148.409 12.117H151.52V24H149.514V14.718L145.366 22.963H144.244L140.113 14.718V24ZM155.165 12.117H157.171V24H155.165V12.117ZM160.801 24V12.117H162.807V22.096H168.23V24H160.801Z" fill="#FFFFEE"/>
<path d="M110.027 16.231L109.97 16.3131L109.972 16.3142L110.027 16.231ZM112.407 17.047L112.384 17.1442L112.384 17.1442L112.407 17.047ZM115.161 18.288L115.096 18.3634L115.096 18.364L115.161 18.288ZM114.923 23.167L114.987 23.2441L114.923 23.167ZM106.899 22.215L106.822 22.1511L106.761 22.2254L106.833 22.2897L106.899 22.215ZM108.157 20.702L108.223 20.6265L108.146 20.5595L108.08 20.6381L108.157 20.702ZM113.427 21.858L113.486 21.9389L113.487 21.9386L113.427 21.858ZM113.461 19.682L113.402 19.7624L113.405 19.7644L113.461 19.682ZM111.625 18.985L111.601 19.0821L111.603 19.0824L111.625 18.985ZM109.636 18.407L109.599 18.4999L109.601 18.5006L109.636 18.407ZM108.429 17.71L108.492 17.6321L108.49 17.6303L108.429 17.71ZM108.565 12.729L108.625 12.8093L108.625 12.8091L108.565 12.729ZM113.801 12.202L113.77 12.2969L113.77 12.2969L113.801 12.202ZM115.739 13.256L115.821 13.3138L115.874 13.2383L115.803 13.1792L115.739 13.256ZM114.668 14.769L114.601 14.8432L114.685 14.9187L114.75 14.8268L114.668 14.769ZM111.455 13.581C110.864 13.581 110.368 13.7027 109.974 13.9536L110.081 14.1224C110.435 13.8972 110.891 13.781 111.455 13.781V13.581ZM109.974 13.9536C109.568 14.2121 109.366 14.6085 109.366 15.126H109.566C109.566 14.6688 109.739 14.3399 110.081 14.1224L109.974 13.9536ZM109.366 15.126C109.366 15.633 109.568 16.0327 109.97 16.313L110.085 16.149C109.739 15.908 109.566 15.571 109.566 15.126H109.366ZM109.972 16.3142C110.17 16.4461 110.471 16.5798 110.87 16.7166C111.271 16.8539 111.776 16.9964 112.384 17.1442L112.431 16.9498C111.826 16.8029 111.328 16.6621 110.935 16.5274C110.541 16.3922 110.259 16.2652 110.083 16.1478L109.972 16.3142ZM112.384 17.1442C113.6 17.437 114.501 17.8456 115.096 18.3634L115.227 18.2126C114.598 17.6651 113.663 17.2463 112.431 16.9498L112.384 17.1442ZM115.096 18.364C115.692 18.8728 115.996 19.629 115.996 20.651H116.196C116.196 19.5876 115.878 18.7686 115.226 18.212L115.096 18.364ZM115.996 20.651C115.996 21.6531 115.618 22.4633 114.86 23.0899L114.987 23.2441C115.792 22.5787 116.196 21.7116 116.196 20.651H115.996ZM114.86 23.0899C114.1 23.7177 113.098 24.036 111.846 24.036V24.236C113.133 24.236 114.183 23.9083 114.987 23.2441L114.86 23.0899ZM111.846 24.036C110.013 24.036 108.388 23.4053 106.966 22.1403L106.833 22.2897C108.29 23.586 109.962 24.236 111.846 24.236V24.036ZM106.976 22.2789L108.234 20.7659L108.08 20.6381L106.822 22.1511L106.976 22.2789ZM108.092 20.7775C109.307 21.8322 110.576 22.366 111.897 22.366V22.166C110.635 22.166 109.41 21.6572 108.223 20.6265L108.092 20.7775ZM111.897 22.366C112.556 22.366 113.089 22.2274 113.486 21.9389L113.369 21.7771C113.017 22.0326 112.53 22.166 111.897 22.166V22.366ZM113.487 21.9386C113.896 21.6376 114.105 21.2401 114.105 20.753H113.905C113.905 21.1725 113.729 21.5117 113.368 21.7774L113.487 21.9386ZM114.105 20.753C114.105 20.2576 113.91 19.8688 113.518 19.5996L113.405 19.7644C113.738 19.9939 113.905 20.3191 113.905 20.753H114.105ZM113.521 19.6017C113.152 19.3281 112.523 19.0922 111.648 18.8876L111.603 19.0824C112.473 19.2858 113.068 19.5146 113.402 19.7623L113.521 19.6017ZM111.649 18.8879C110.778 18.6729 110.119 18.4813 109.671 18.3134L109.601 18.5006C110.06 18.6727 110.728 18.8665 111.601 19.0821L111.649 18.8879ZM109.673 18.3142C109.229 18.1362 108.835 17.9088 108.492 17.6322L108.367 17.7878C108.726 18.0779 109.137 18.3151 109.599 18.4998L109.673 18.3142ZM108.49 17.6303C107.818 17.1212 107.475 16.3386 107.475 15.262H107.275C107.275 16.3841 107.635 17.2335 108.369 17.7897L108.49 17.6303ZM107.475 15.262C107.475 14.1902 107.86 13.3774 108.625 12.8093L108.506 12.6487C107.684 13.2592 107.275 14.1351 107.275 15.262H107.475ZM108.625 12.8091C109.41 12.2235 110.379 11.928 111.54 11.928V11.728C110.344 11.728 109.33 12.0332 108.506 12.6489L108.625 12.8091ZM111.54 11.928C112.289 11.928 113.032 12.0508 113.77 12.2969L113.833 12.1071C113.075 11.8545 112.311 11.728 111.54 11.728V11.928ZM113.77 12.2969C114.507 12.5427 115.142 12.8883 115.675 13.3328L115.803 13.1792C115.249 12.717 114.591 12.36 113.833 12.1071L113.77 12.2969ZM115.658 13.1982L114.587 14.7112L114.75 14.8268L115.821 13.3138L115.658 13.1982ZM114.735 14.6948C114.371 14.3658 113.882 14.0993 113.272 13.8923L113.208 14.0817C113.8 14.2827 114.263 14.5375 114.601 14.8432L114.735 14.6948ZM113.272 13.8923C112.662 13.6851 112.056 13.581 111.455 13.581V13.781C112.033 13.781 112.617 13.8809 113.208 14.0817L113.272 13.8923ZM118.916 24H118.816V24.1H118.916V24ZM118.916 12.117V12.017H118.816V12.117H118.916ZM120.922 12.117H121.022V12.017H120.922V12.117ZM120.922 17.268H120.822V17.368H120.922V17.268ZM126.821 17.268V17.368H126.921V17.268H126.821ZM126.821 12.117V12.017H126.721V12.117H126.821ZM128.827 12.117H128.927V12.017H128.827V12.117ZM128.827 24V24.1H128.927V24H128.827ZM126.821 24H126.721V24.1H126.821V24ZM126.821 19.138H126.921V19.038H126.821V19.138ZM120.922 19.138V19.038H120.822V19.138H120.922ZM120.922 24V24.1H121.022V24H120.922ZM119.016 24V12.117H118.816V24H119.016ZM118.916 12.217H120.922V12.017H118.916V12.217ZM120.822 12.117V17.268H121.022V12.117H120.822ZM120.922 17.368H126.821V17.168H120.922V17.368ZM126.921 17.268V12.117H126.721V17.268H126.921ZM126.821 12.217H128.827V12.017H126.821V12.217ZM128.727 12.117V24H128.927V12.117H128.727ZM128.827 23.9H126.821V24.1H128.827V23.9ZM126.921 24V19.138H126.721V24H126.921ZM126.821 19.038H120.922V19.238H126.821V19.038ZM120.822 19.138V24H121.022V19.138H120.822ZM120.922 23.9H118.916V24.1H120.922V23.9ZM132.471 12.117V12.017H132.371V12.117H132.471ZM134.477 12.117H134.577V12.017H134.477V12.117ZM134.477 24V24.1H134.577V24H134.477ZM132.471 24H132.371V24.1H132.471V24ZM132.471 12.217H134.477V12.017H132.471V12.217ZM134.377 12.117V24H134.577V12.117H134.377ZM134.477 23.9H132.471V24.1H134.477V23.9ZM132.571 24V12.117H132.371V24H132.571ZM140.113 24V24.1H140.213V24H140.113ZM138.107 24H138.007V24.1H138.107V24ZM138.107 12.117V12.017H138.007V12.117H138.107ZM141.235 12.117L141.325 12.0737L141.298 12.017H141.235V12.117ZM144.822 19.58L144.732 19.6233L144.822 19.8108L144.912 19.6233L144.822 19.58ZM148.409 12.117V12.017H148.346L148.319 12.0737L148.409 12.117ZM151.52 12.117H151.62V12.017H151.52V12.117ZM151.52 24V24.1H151.62V24H151.52ZM149.514 24H149.414V24.1H149.514V24ZM149.514 14.718H149.614L149.425 14.6731L149.514 14.718ZM145.366 22.963V23.063H145.428L145.455 23.0079L145.366 22.963ZM144.244 22.963L144.155 23.0078L144.182 23.063H144.244V22.963ZM140.113 14.718L140.202 14.6732L140.013 14.718H140.113ZM140.113 23.9H138.107V24.1H140.113V23.9ZM138.207 24V12.117H138.007V24H138.207ZM138.107 12.217H141.235V12.017H138.107V12.217ZM141.145 12.1603L144.732 19.6233L144.912 19.5367L141.325 12.0737L141.145 12.1603ZM144.912 19.6233L148.499 12.1603L148.319 12.0737L144.732 19.5367L144.912 19.6233ZM148.409 12.217H151.52V12.017H148.409V12.217ZM151.42 12.117V24H151.62V12.117H151.42ZM151.52 23.9H149.514V24.1H151.52V23.9ZM149.614 24V14.718H149.414V24H149.614ZM149.425 14.6731L145.277 22.9181L145.455 23.0079L149.603 14.7629L149.425 14.6731ZM145.366 22.863H144.244V23.063H145.366V22.863ZM144.333 22.9182L140.202 14.6732L140.024 14.7628L144.155 23.0078L144.333 22.9182ZM140.013 14.718V24H140.213V14.718H140.013ZM155.165 12.117V12.017H155.065V12.117H155.165ZM157.171 12.117H157.271V12.017H157.171V12.117ZM157.171 24V24.1H157.271V24H157.171ZM155.165 24H155.065V24.1H155.165V24ZM155.165 12.217H157.171V12.017H155.165V12.217ZM157.071 12.117V24H157.271V12.117H157.071ZM157.171 23.9H155.165V24.1H157.171V23.9ZM155.265 24V12.117H155.065V24H155.265ZM160.801 24H160.701V24.1H160.801V24ZM160.801 12.117V12.017H160.701V12.117H160.801ZM162.807 12.117H162.907V12.017H162.807V12.117ZM162.807 22.096H162.707V22.196H162.807V22.096ZM168.23 22.096H168.33V21.996H168.23V22.096ZM168.23 24V24.1H168.33V24H168.23ZM160.901 24V12.117H160.701V24H160.901ZM160.801 12.217H162.807V12.017H160.801V12.217ZM162.707 12.117V22.096H162.907V12.117H162.707ZM162.807 22.196H168.23V21.996H162.807V22.196ZM168.13 22.096V24H168.33V22.096H168.13ZM168.23 23.9H160.801V24.1H168.23V23.9Z" fill="white"/>
<path d="M0 0.0289917H93.167V35.029H0V0.0289917Z" fill="#212121"/>
<path d="M13.8669 22V13.469H16.7909C17.5679 13.4173 18.3405 13.6209 18.9909 14.049C19.2467 14.2552 19.4489 14.52 19.5805 14.821C19.7121 15.122 19.7692 15.4503 19.7469 15.778C19.7517 16.1537 19.6414 16.5218 19.4309 16.833C19.2006 17.1612 18.8784 17.4141 18.5049 17.56C18.9328 17.6632 19.3111 17.913 19.5739 18.266C19.8314 18.6292 19.964 19.066 19.9519 19.511C19.9729 19.8572 19.9143 20.2035 19.7807 20.5235C19.647 20.8435 19.4419 21.1286 19.1809 21.357C18.5455 21.8238 17.7657 22.0515 16.9789 22H13.8669ZM15.3489 17.061H16.7999C17.1855 17.0841 17.5673 16.9735 17.8809 16.748C18.011 16.641 18.1141 16.5048 18.1819 16.3506C18.2496 16.1963 18.2801 16.0283 18.2709 15.86C18.2867 15.6901 18.2624 15.5189 18.1999 15.3601C18.1373 15.2014 18.0384 15.0595 17.9109 14.946C17.5774 14.7328 17.1835 14.6342 16.7889 14.665H15.3499L15.3489 17.061ZM15.3489 18.151V20.8H16.9999C17.3932 20.8235 17.7814 20.701 18.0899 20.456C18.2223 20.3357 18.3263 20.1873 18.3943 20.0218C18.4622 19.8563 18.4925 19.6777 18.4829 19.499C18.5056 19.3154 18.486 19.1289 18.4256 18.954C18.3653 18.7791 18.2657 18.6202 18.1346 18.4896C18.0035 18.359 17.8443 18.2601 17.6692 18.2003C17.494 18.1406 17.3075 18.1217 17.1239 18.145L15.3489 18.151ZM30.3179 13.469V19.169C30.3373 19.5695 30.2696 19.9693 30.1194 20.3411C29.9691 20.7128 29.7401 21.0475 29.4479 21.322C28.8058 21.8737 27.9765 22.1579 27.1309 22.116C26.2843 22.1611 25.4524 21.8814 24.8049 21.334C24.5128 21.0561 24.2844 20.718 24.1358 20.3432C23.9871 19.9683 23.9217 19.5657 23.9439 19.163V13.463H25.4209V19.163C25.3895 19.6365 25.5454 20.1034 25.8549 20.463C26.0256 20.6215 26.227 20.7432 26.4467 20.8206C26.6664 20.8981 26.8996 20.9295 27.1319 20.913C28.2726 20.913 28.8429 20.313 28.8429 19.113V13.469H30.3179ZM36.0999 22H34.6269V13.469H36.0999V22ZM42.0489 20.8H45.9219V22H40.5659V13.469H42.0479L42.0489 20.8ZM54.6619 14.664H51.9999V22H50.5309V14.664H47.8939V13.464H54.6619V14.664ZM63.6999 22V13.469H66.6239C67.4009 13.4173 68.1735 13.6209 68.8239 14.049C69.0797 14.2552 69.2819 14.52 69.4135 14.821C69.5451 15.122 69.6022 15.4503 69.5799 15.778C69.5847 16.1537 69.4744 16.5218 69.2639 16.833C69.0336 17.1612 68.7114 17.4141 68.3379 17.56C68.7658 17.6632 69.1441 17.913 69.4069 18.266C69.6644 18.6292 69.797 19.066 69.7849 19.511C69.8059 19.8572 69.7473 20.2035 69.6137 20.5235C69.48 20.8435 69.2749 21.1286 69.0139 21.357C68.3777 21.8245 67.5967 22.0522 66.8089 22H63.6999ZM65.1819 17.061H66.6349C67.0205 17.0841 67.4023 16.9735 67.7159 16.748C67.846 16.641 67.9491 16.5048 68.0169 16.3506C68.0846 16.1963 68.1151 16.0283 68.1059 15.86C68.1217 15.6901 68.0974 15.5189 68.0349 15.3601C67.9723 15.2014 67.8734 15.0595 67.7459 14.946C67.4125 14.7328 67.0185 14.6342 66.6239 14.665H65.1799L65.1819 17.061ZM65.1819 18.151V20.8H66.8279C67.2212 20.8235 67.6094 20.701 67.9179 20.456C68.0503 20.3357 68.1543 20.1873 68.2223 20.0218C68.2902 19.8563 68.3205 19.6777 68.3109 19.499C68.3336 19.3154 68.314 19.1289 68.2536 18.954C68.1933 18.7791 68.0937 18.6202 67.9626 18.4896C67.8315 18.359 67.6723 18.2601 67.4972 18.2003C67.322 18.1406 67.1355 18.1217 66.9519 18.145L65.1819 18.151ZM76.3689 17.512L78.3319 13.469H79.9729L77.1139 18.86V22H75.6249V18.859L72.7599 13.468H74.4059L76.3689 17.512Z" fill="white"/>
<path d="M180.436 14.632V16.324L176.56 17.812L180.436 19.312V21L175 18.78V16.852L180.436 14.632ZM186.844 12H188.872L184.948 22.98H182.92L186.844 12ZM190.828 20.9V19.2L194.704 17.712L190.828 16.212V14.524L196.264 16.744V18.676L190.828 20.9Z" fill="white"/>
</g>
<defs>
<clipPath id="clip0">
<rect width="256.333" height="35.059" fill="white"/>
</clipPath>
</defs>
</svg>
