<svg width="155" height="36" viewBox="0 0 155 36" fill="none" xmlns="http://www.w3.org/2000/svg">
<g clip-path="url(#clip0)">
<path d="M34.792 0H154.75V35H34.792V0Z" fill="#E11847"/>
<path d="M0 0.0289917H75.375V35.029H0V0.0289917Z" fill="#42393B"/>
<path d="M89.083 13.588H91.583V22H89.083V13.588ZM95 13.588H102.392V15.58H99.943V22H97.435V15.58H95V13.588ZM117.433 14C118.113 14.3574 118.682 14.895 119.077 15.554C119.477 16.2269 119.682 16.9974 119.671 17.78C119.682 18.5702 119.477 19.3484 119.077 20.03C118.684 20.6952 118.115 21.2392 117.433 21.602C116.706 21.9771 115.901 22.1728 115.083 22.1728C114.265 22.1728 113.46 21.9771 112.733 21.602C112.054 21.2377 111.487 20.694 111.095 20.03C110.695 19.3483 110.49 18.5702 110.501 17.78C110.49 16.9974 110.696 16.227 111.095 15.554C111.489 14.8959 112.057 14.3585 112.735 14C113.463 13.6289 114.268 13.4355 115.085 13.4355C115.902 13.4355 116.707 13.6289 117.435 14H117.433ZM114.1 15.808C113.781 16.0116 113.52 16.2949 113.344 16.63C113.154 16.9861 113.057 17.3844 113.062 17.788C113.058 18.1934 113.155 18.5935 113.344 18.952C113.52 19.2904 113.78 19.5777 114.1 19.786C114.405 19.9866 114.761 20.093 115.126 20.092C115.483 20.0925 115.831 19.9859 116.126 19.786C116.437 19.5785 116.687 19.293 116.852 18.958C117.031 18.5944 117.122 18.1934 117.116 17.788C117.121 17.3865 117.031 16.9896 116.852 16.63C116.689 16.2971 116.441 16.0134 116.132 15.808C115.833 15.6099 115.482 15.5054 115.124 15.508C114.761 15.5071 114.405 15.6113 114.1 15.808V15.808ZM126.019 19.66C126.149 19.8003 126.307 19.9115 126.482 19.986C126.658 20.0604 126.848 20.0966 127.039 20.092C127.224 20.0974 127.408 20.0621 127.578 19.9885C127.748 19.9149 127.9 19.8048 128.023 19.666C128.291 19.3463 128.429 18.9368 128.407 18.52V13.588H130.907V18.52C130.923 19.1927 130.759 19.8575 130.433 20.446C130.118 20.9934 129.648 21.4359 129.083 21.718C128.449 22.0292 127.749 22.1836 127.043 22.168C126.329 22.1835 125.622 22.0293 124.979 21.718C124.407 21.4369 123.929 20.9948 123.605 20.446C123.271 19.8601 123.103 19.1942 123.119 18.52V13.588H125.619V18.52C125.598 18.9378 125.741 19.3472 126.019 19.66V19.66ZM134.19 13.588H141.582V15.58H139.134V22H136.626V15.58H134.19V13.588ZM20.5 19.223C20.4597 20.0385 20.0971 20.8047 19.492 21.353C18.8338 21.8878 18.0011 22.1603 17.154 22.118C16.5203 22.1318 15.8958 21.9642 15.354 21.635C14.8282 21.3043 14.4109 20.8266 14.154 20.261C13.8607 19.6112 13.711 18.9059 13.715 18.193V17.393C13.7001 16.6612 13.8462 15.9351 14.143 15.266C14.4028 14.6821 14.8302 14.1885 15.371 13.848C15.9272 13.5088 16.5687 13.3354 17.22 13.348C18.0468 13.3089 18.8581 13.5819 19.493 14.113C20.0929 14.6788 20.4511 15.4544 20.493 16.278H19.025C19.0067 15.7867 18.817 15.3172 18.489 14.951C18.1366 14.6569 17.6839 14.5109 17.226 14.544C16.9393 14.5294 16.6534 14.5864 16.3942 14.7098C16.135 14.8333 15.9105 15.0192 15.741 15.251C15.3542 15.8709 15.169 16.5955 15.211 17.325V18.081C15.1658 18.8186 15.3398 19.553 15.711 20.192C15.869 20.4285 16.0856 20.62 16.3398 20.7476C16.594 20.8752 16.877 20.9346 17.161 20.92C17.6322 20.9553 18.0997 20.8153 18.474 20.527C18.8098 20.1718 19.0074 19.7082 19.031 19.22L20.5 19.223ZM31.24 22H29.763V18.215H25.949V22H24.466V13.469H25.948V17.02H29.762V13.469H31.24V22ZM40.618 18.191H37.118V20.8H41.218V22H35.631V13.469H41.168V14.669H37.114V17.02H40.614L40.618 18.191ZM51.566 19.223C51.5257 20.0385 51.1631 20.8047 50.558 21.353C49.8998 21.8878 49.0671 22.1603 48.22 22.118C47.5863 22.1318 46.9618 21.9642 46.42 21.635C45.8942 21.3043 45.4769 20.8266 45.22 20.261C44.9267 19.6112 44.777 18.9059 44.781 18.193V17.393C44.7661 16.6612 44.9122 15.9351 45.209 15.266C45.4688 14.6821 45.8962 14.1885 46.437 13.848C46.9932 13.5088 47.6347 13.3354 48.286 13.348C49.1128 13.3089 49.9241 13.5819 50.559 14.113C51.1589 14.6788 51.5171 15.4544 51.559 16.278H50.09C50.0717 15.7867 49.882 15.3172 49.554 14.951C49.2016 14.6569 48.7489 14.5109 48.291 14.544C48.0043 14.5294 47.7184 14.5864 47.4592 14.7098C47.2 14.8333 46.9755 15.0192 46.806 15.251C46.4192 15.8709 46.234 16.5955 46.276 17.325V18.081C46.2308 18.8186 46.4048 19.553 46.776 20.192C46.934 20.4285 47.1506 20.62 47.4048 20.7476C47.659 20.8752 47.942 20.9346 48.226 20.92C48.6972 20.9553 49.1647 20.8153 49.539 20.527C49.8748 20.1718 50.0724 19.7082 50.096 19.22L51.566 19.223ZM57.98 18.314L57.013 19.339V22H55.531V13.469H57.013V17.469L57.833 16.455L60.333 13.467H62.126L58.956 17.246L62.3 22H60.546L57.98 18.314Z" fill="white"/>
</g>
<defs>
<clipPath id="clip0">
<rect width="154.75" height="35.059" fill="white"/>
</clipPath>
</defs>
</svg>
