<svg width="202" height="36" viewBox="0 0 202 36" fill="none" xmlns="http://www.w3.org/2000/svg">
<g clip-path="url(#clip0)">
<path d="M97.09 0H201.4V35.06H97.09V0Z" fill="#4E20D0"/>
<path d="M0 0H97.09V35.06H0V0Z" fill="#555BE3"/>
<path d="M114.5 21.52C113.789 21.1518 113.196 20.5907 112.789 19.9008C112.382 19.211 112.178 18.4205 112.2 17.62C112.184 16.8095 112.392 16.0104 112.8 15.31C113.211 14.632 113.798 14.0789 114.5 13.71C115.233 13.3015 116.061 13.0945 116.9 13.11C117.622 13.0781 118.341 13.215 119 13.51C119.581 13.793 120.09 14.2032 120.49 14.71L119 16.11C118.777 15.789 118.477 15.5291 118.128 15.3544C117.778 15.1796 117.391 15.0956 117 15.11C116.579 15.0891 116.162 15.1935 115.8 15.41C115.462 15.5941 115.184 15.8719 115 16.21C114.796 16.616 114.693 17.0655 114.7 17.52C114.693 17.9713 114.796 18.4176 115 18.82C115.184 19.1581 115.462 19.4359 115.8 19.62C116.171 19.8129 116.582 19.9157 117 19.92C117.389 19.9232 117.773 19.8342 118.12 19.6604C118.468 19.4865 118.769 19.2328 119 18.92L120.49 20.32C120.09 20.8268 119.581 21.237 119 21.52C118.341 21.815 117.622 21.9519 116.9 21.92C116.079 22.0001 115.251 21.8621 114.5 21.52ZM125.89 15.31H123.29V13.41H130.78V15.31H128.19V21.82H125.79L125.89 15.31V15.31ZM138 19.62H136.71V21.82H134.31V13.41H138.1C138.789 13.3774 139.476 13.5147 140.1 13.81C140.635 14.0356 141.089 14.4194 141.4 14.91C141.715 15.385 141.889 15.94 141.9 16.51C141.921 17.0736 141.782 17.6316 141.5 18.12C141.202 18.5846 140.789 18.9636 140.3 19.22L142.1 21.82H139.6L138 19.62ZM139.2 15.62C138.882 15.3892 138.491 15.2825 138.1 15.32H136.81V17.83H138.1C138.491 17.8675 138.882 17.7608 139.2 17.53C139.324 17.413 139.424 17.2721 139.493 17.1157C139.561 16.9594 139.598 16.7908 139.6 16.62C139.567 16.2464 139.416 15.8929 139.17 15.61L139.2 15.62ZM145.86 13.41H148.26V19.92H152.26V21.82H145.86V13.41ZM167.74 18.52H165.74V20.52H163.94V18.52H161.94V16.72H163.94V14.72H165.74V16.72H167.74V18.52ZM186.52 13.41L182.92 21.82H180.62L177 13.41H179.6L181.89 18.92L184.19 13.41H186.52ZM20.65 18.26C20.6111 19.0771 20.2518 19.8459 19.65 20.4C18.9899 20.9323 18.1569 21.2028 17.31 21.16C16.6798 21.1743 16.0586 21.0077 15.52 20.68C14.9912 20.3502 14.5732 19.8695 14.32 19.3C14.0273 18.6493 13.8773 17.9435 13.88 17.23V16.43C13.864 15.6937 14.0108 14.9629 14.31 14.29C14.5691 13.7076 14.9933 13.2139 15.53 12.87C16.0873 12.5325 16.7286 12.3591 17.38 12.37C18.2094 12.3335 19.0226 12.6081 19.66 13.14C20.2576 13.7095 20.6153 14.4857 20.66 15.31H19.17C19.1452 14.8262 18.9586 14.3649 18.64 14C18.2854 13.7047 17.8304 13.5578 17.37 13.59C17.0838 13.5765 16.7988 13.6344 16.5405 13.7583C16.2821 13.8822 16.0586 14.0683 15.89 14.3C15.498 14.9199 15.3124 15.6481 15.36 16.38V17.14C15.3132 17.8793 15.4835 18.6162 15.85 19.26C16.0078 19.4975 16.2241 19.6903 16.4781 19.8199C16.7321 19.9495 17.0151 20.0116 17.3 20C17.771 20.0322 18.2374 19.8898 18.61 19.6C18.9512 19.2469 19.1505 18.7806 19.17 18.29L20.65 18.26ZM30.61 13.69H28V21.05H26.48V13.69H23.84V12.49H30.61V13.69ZM37.5 17.76H35.85V21.05H34.37V12.49H37.37C38.1823 12.436 38.9872 12.6736 39.64 13.16C39.9148 13.3952 40.131 13.6911 40.2716 14.0244C40.4122 14.3576 40.4733 14.719 40.45 15.08C40.4587 15.5959 40.3009 16.1008 40 16.52C39.7087 16.9196 39.3099 17.2283 38.85 17.41L40.8 21V21.08H39.21L37.5 17.76ZM35.85 16.56H37.37C37.7938 16.5838 38.2111 16.4483 38.54 16.18C38.6764 16.0522 38.7842 15.897 38.8566 15.7247C38.929 15.5524 38.9642 15.3668 38.96 15.18C38.9717 14.9868 38.9441 14.7932 38.8788 14.611C38.8134 14.4288 38.7118 14.2618 38.58 14.12C38.2536 13.8464 37.8354 13.707 37.41 13.73H35.85V16.56ZM46 19.86H49.87V21.05H44.49V12.49H46V19.86ZM62.41 16.34H64.63V17.64H62.41V20.19H61V17.64H58.79V16.34H61V14H62.39L62.41 16.34ZM80.72 18.26C80.6811 19.0771 80.3218 19.8459 79.72 20.4C79.0599 20.9323 78.2269 21.2028 77.38 21.16C76.7498 21.1743 76.1286 21.0077 75.59 20.68C75.0612 20.3502 74.6432 19.8695 74.39 19.3C74.0973 18.6493 73.9473 17.9435 73.95 17.23V16.43C73.934 15.6937 74.0808 14.9629 74.38 14.29C74.6391 13.7076 75.0633 13.2139 75.6 12.87C76.1573 12.5325 76.7986 12.3591 77.45 12.37C78.2794 12.3335 79.0926 12.6081 79.73 13.14C80.3276 13.7095 80.6853 14.4857 80.73 15.31H79.24C79.2152 14.8262 79.0286 14.3649 78.71 14C78.3554 13.7047 77.9004 13.5578 77.44 13.59C77.1538 13.5765 76.8688 13.6344 76.6105 13.7583C76.3521 13.8822 76.1286 14.0683 75.96 14.3C75.568 14.9199 75.3824 15.6481 75.43 16.38V17.14C75.3832 17.8793 75.5535 18.6162 75.92 19.26C76.079 19.4956 76.2958 19.6865 76.5497 19.8143C76.8036 19.9422 77.0861 20.0026 77.37 19.99C77.841 20.0222 78.3074 19.8798 78.68 19.59C79.0212 19.2369 79.2205 18.7706 79.24 18.28L80.72 18.26Z" fill="white"/>
</g>
<defs>
<clipPath id="clip0">
<rect width="201.4" height="35.06" fill="white"/>
</clipPath>
</defs>
</svg>
