<svg width="280" height="39" viewBox="0 0 280 39" fill="none" xmlns="http://www.w3.org/2000/svg">
<g clip-path="url(#clip0)">
<path d="M0 0H156V39H0V0Z" fill="#BD4B05"/>
<path d="M32.1179 26H30.3479V15.515H33.1079L36.2729 22.1L39.4379 15.515H42.1829V26H40.4129V17.81L36.7529 25.085H35.7629L32.1179 17.81V26ZM47.0338 23.615L45.9838 26H44.0938L48.7138 15.515H50.6038L55.2238 26H53.3338L52.2838 23.615H47.0338ZM51.5638 21.98L49.6588 17.66L47.7538 21.98H51.5638ZM60.7317 15.515C62.6117 15.515 64.0567 15.975 65.0667 16.895C66.0767 17.805 66.5817 19.075 66.5817 20.705C66.5817 22.335 66.0917 23.625 65.1117 24.575C64.1317 25.525 62.6317 26 60.6117 26H57.1317V15.515H60.7317ZM64.7967 20.75C64.7967 18.35 63.4217 17.15 60.6717 17.15H58.9017V24.335H60.8667C62.1367 24.335 63.1067 24.035 63.7767 23.435C64.4567 22.825 64.7967 21.93 64.7967 20.75ZM76.6801 15.515V17.18H71.0851V19.955H76.1101V21.53H71.0851V24.335H76.8601V26H69.3151V15.515H76.6801ZM91.9819 23.06L94.3219 15.515H95.9119L98.2519 23.06L100.892 15.515H102.797L99.1369 26H97.3819L95.1769 18.815H95.0569L92.8519 26H91.0969L87.4369 15.515H89.3419L91.9819 23.06ZM104.88 15.515H106.65V26H104.88V15.515ZM113.963 17.135V26H112.193V17.135H109.013V15.515H117.143V17.135H113.963ZM119.505 26V15.515H121.275V20.06H126.48V15.515H128.25V26H126.48V21.71H121.275V26H119.505Z" fill="white"/>
<path d="M156.001 0H280V39H156L156.001 0Z" fill="#F46106"/>
<path d="M192.58 11.644V27H189.5V20.466H182.922V27H179.842V11.644H182.922V17.958H189.5V11.644H192.58ZM206.062 11.644V14.13H201.97V27H198.89V14.13H194.798V11.644H206.062ZM225.051 11.644V27H221.971V17.012L217.857 27H215.525L211.389 17.012V27H208.309V11.644H211.807L216.691 23.062L221.575 11.644H225.051ZM231.176 24.558H236.236V27H228.096V11.644H231.176V24.558Z" fill="white"/>
<path d="M249.854 8.75H259H268.109L267.654 11.375H259H253.286H252.395L252.547 12.253L253.261 16.378L253.369 17H254H259H266.718L265.457 26.7105L259 29.1963L252.508 26.697L251.636 22.5H254.134L254.703 24.6885L254.8 25.0615L255.159 25.1999L258.731 26.5749L259 26.6787L259.269 26.5749L262.841 25.1999L263.258 25.0395L263.315 24.5966L264.029 19.0966L264.139 18.25H263.286H259H251.087L249.854 8.75Z" stroke="white" stroke-width="1.5"/>
</g>
<defs>
<clipPath id="clip0">
<rect width="280" height="39" fill="white"/>
</clipPath>
</defs>
</svg>
