<svg width="228" height="39" viewBox="0 0 228 39" fill="none" xmlns="http://www.w3.org/2000/svg">
<g clip-path="url(#clip0)">
<path d="M0 0H126.703V39H0V0Z" fill="#00C7FF"/>
<path d="M17.3904 26H15.6204V15.515H18.3804L21.5454 22.1L24.7104 15.515H27.4554V26H25.6854V17.81L22.0254 25.085H21.0354L17.3904 17.81V26ZM32.3064 23.615L31.2564 26H29.3664L33.9864 15.515H35.8764L40.4964 26H38.6064L37.5564 23.615H32.3064ZM36.8364 21.98L34.9314 17.66L33.0264 21.98H36.8364ZM46.0042 15.515C47.8842 15.515 49.3292 15.975 50.3392 16.895C51.3492 17.805 51.8542 19.075 51.8542 20.705C51.8542 22.335 51.3642 23.625 50.3842 24.575C49.4042 25.525 47.9042 26 45.8842 26H42.4042V15.515H46.0042ZM50.0692 20.75C50.0692 18.35 48.6942 17.15 45.9442 17.15H44.1742V24.335H46.1392C47.4092 24.335 48.3792 24.035 49.0492 23.435C49.7292 22.825 50.0692 21.93 50.0692 20.75ZM61.9526 15.515V17.18H56.3576V19.955H61.3826V21.53H56.3576V24.335H62.1326V26H54.5876V15.515H61.9526ZM77.2545 23.06L79.5945 15.515H81.1845L83.5245 23.06L86.1645 15.515H88.0695L84.4095 26H82.6545L80.4495 18.815H80.3295L78.1245 26H76.3695L72.7095 15.515H74.6145L77.2545 23.06ZM90.1523 15.515H91.9223V26H90.1523V15.515ZM99.2351 17.135V26H97.4651V17.135H94.2851V15.515H102.415V17.135H99.2351ZM104.778 26V15.515H106.548V20.06H111.753V15.515H113.523V26H111.753V21.71H106.548V26H104.778Z" fill="white"/>
<path d="M124.868 0H228.002V39H124.867L124.868 0Z" fill="#009FEF"/>
<path d="M144.019 20.352C144.019 18.976 144.299 17.776 144.859 16.752C145.419 15.712 146.195 14.912 147.187 14.352C148.179 13.776 149.315 13.488 150.595 13.488C152.243 13.488 153.603 13.904 154.675 14.736C155.763 15.552 156.491 16.704 156.859 18.192H153.235C153.043 17.616 152.715 17.168 152.251 16.848C151.803 16.512 151.243 16.344 150.571 16.344C149.611 16.344 148.851 16.696 148.291 17.4C147.731 18.088 147.451 19.072 147.451 20.352C147.451 21.616 147.731 22.6 148.291 23.304C148.851 23.992 149.611 24.336 150.571 24.336C151.931 24.336 152.819 23.728 153.235 22.512H156.859C156.491 23.952 155.763 25.096 154.675 25.944C153.587 26.792 152.227 27.216 150.595 27.216C149.315 27.216 148.179 26.936 147.187 26.376C146.195 25.8 145.419 25 144.859 23.976C144.299 22.936 144.019 21.728 144.019 20.352ZM164.408 27.216C163.32 27.216 162.344 27.024 161.48 26.64C160.616 26.24 159.928 25.704 159.416 25.032C158.92 24.36 158.648 23.616 158.6 22.8H161.984C162.048 23.312 162.296 23.736 162.728 24.072C163.176 24.408 163.728 24.576 164.384 24.576C165.024 24.576 165.52 24.448 165.872 24.192C166.24 23.936 166.424 23.608 166.424 23.208C166.424 22.776 166.2 22.456 165.752 22.248C165.32 22.024 164.624 21.784 163.664 21.528C162.672 21.288 161.856 21.04 161.216 20.784C160.592 20.528 160.048 20.136 159.584 19.608C159.136 19.08 158.912 18.368 158.912 17.472C158.912 16.736 159.12 16.064 159.536 15.456C159.968 14.848 160.576 14.368 161.36 14.016C162.16 13.664 163.096 13.488 164.168 13.488C165.752 13.488 167.016 13.888 167.96 14.688C168.904 15.472 169.424 16.536 169.52 17.88H166.304C166.256 17.352 166.032 16.936 165.632 16.632C165.248 16.312 164.728 16.152 164.072 16.152C163.464 16.152 162.992 16.264 162.656 16.488C162.336 16.712 162.176 17.024 162.176 17.424C162.176 17.872 162.4 18.216 162.848 18.456C163.296 18.68 163.992 18.912 164.936 19.152C165.896 19.392 166.688 19.64 167.312 19.896C167.936 20.152 168.472 20.552 168.92 21.096C169.384 21.624 169.624 22.328 169.64 23.208C169.64 23.976 169.424 24.664 168.992 25.272C168.576 25.88 167.968 26.36 167.168 26.712C166.384 27.048 165.464 27.216 164.408 27.216ZM177.486 27.216C176.398 27.216 175.422 27.024 174.558 26.64C173.694 26.24 173.006 25.704 172.494 25.032C171.998 24.36 171.726 23.616 171.678 22.8H175.062C175.126 23.312 175.374 23.736 175.806 24.072C176.254 24.408 176.806 24.576 177.462 24.576C178.102 24.576 178.598 24.448 178.95 24.192C179.318 23.936 179.502 23.608 179.502 23.208C179.502 22.776 179.278 22.456 178.83 22.248C178.398 22.024 177.702 21.784 176.742 21.528C175.75 21.288 174.934 21.04 174.294 20.784C173.67 20.528 173.126 20.136 172.662 19.608C172.214 19.08 171.99 18.368 171.99 17.472C171.99 16.736 172.198 16.064 172.614 15.456C173.046 14.848 173.654 14.368 174.438 14.016C175.238 13.664 176.174 13.488 177.246 13.488C178.83 13.488 180.094 13.888 181.038 14.688C181.982 15.472 182.502 16.536 182.598 17.88H179.382C179.334 17.352 179.11 16.936 178.71 16.632C178.326 16.312 177.806 16.152 177.15 16.152C176.542 16.152 176.07 16.264 175.734 16.488C175.414 16.712 175.254 17.024 175.254 17.424C175.254 17.872 175.478 18.216 175.926 18.456C176.374 18.68 177.07 18.912 178.014 19.152C178.974 19.392 179.766 19.64 180.39 19.896C181.014 20.152 181.55 20.552 181.998 21.096C182.462 21.624 182.702 22.328 182.718 23.208C182.718 23.976 182.502 24.664 182.07 25.272C181.654 25.88 181.046 26.36 180.246 26.712C179.462 27.048 178.542 27.216 177.486 27.216Z" fill="white"/>
<path d="M215.286 11.0001L212.448 27.3191L202.545 30.8668L194 27.3191L194.869 23.1152H198.505L198.151 24.9156L203.312 26.8846L209.259 24.9156L210.093 20.6096H195.308L196.018 16.9734H210.816L211.281 14.6363H196.497L197.219 11H215.286V11.0001Z" stroke="white" stroke-opacity="0.89" stroke-width="1.5" stroke-miterlimit="10" stroke-linecap="round" stroke-linejoin="round"/>
</g>
<defs>
<clipPath id="clip0">
<rect width="228" height="39" fill="white"/>
</clipPath>
</defs>
</svg>
