<svg width="455" height="50" viewBox="0 0 455 50" fill="none" xmlns="http://www.w3.org/2000/svg">
<path d="M0 0H190.572V50H0V0Z" fill="#313131"/>
<path d="M21.61 30.71C21.503 30.71 21.43 30.638 21.43 30.53V18.635C21.43 18.528 21.503 18.455 21.61 18.455H26.368C29.035 18.455 30.638 20.059 30.638 22.401C30.638 24.711 29.018 26.331 26.368 26.331H24.188C24.116 26.331 24.08 26.371 24.08 26.441V30.531C24.08 30.641 24.008 30.711 23.9 30.711H21.61V30.71ZM27.99 22.402C27.99 21.412 27.324 20.744 26.207 20.744H24.19C24.117 20.744 24.08 20.78 24.08 20.852V23.934C24.08 24.004 24.117 24.041 24.19 24.041H26.207C27.324 24.049 27.991 23.401 27.991 22.409L27.99 22.402ZM36.347 27.935C36.077 27.088 36.005 26.405 36.005 24.583C36.005 22.761 36.077 22.078 36.347 21.231C36.977 19.251 38.672 18.261 40.817 18.261C42.96 18.261 44.654 19.251 45.285 21.238C45.555 22.086 45.628 22.77 45.628 24.591C45.628 26.412 45.556 27.095 45.285 27.941C44.655 29.921 42.96 30.915 40.815 30.915C38.671 30.915 36.978 29.923 36.347 27.941V27.935ZM42.744 27.215C42.888 26.781 42.942 26.187 42.942 24.583C42.942 22.979 42.888 22.385 42.744 21.953C42.474 21.103 41.824 20.6 40.816 20.6C39.806 20.6 39.158 21.104 38.888 21.952C38.743 22.385 38.69 22.979 38.69 24.582C38.69 26.185 38.744 26.782 38.888 27.214C39.158 28.061 39.808 28.566 40.816 28.566C41.826 28.566 42.474 28.061 42.744 27.214V27.215ZM60.47 30.71C60.344 30.71 60.272 30.638 60.236 30.53L58.11 22.907H58.074L55.93 30.53C55.894 30.637 55.822 30.71 55.696 30.71H53.894C53.786 30.71 53.714 30.638 53.678 30.53L50.508 18.635C50.488 18.528 50.525 18.455 50.651 18.455H52.981C53.109 18.455 53.181 18.527 53.199 18.635L54.965 26.33H55L57.09 18.635C57.125 18.528 57.197 18.455 57.323 18.455H58.889C58.995 18.455 59.069 18.527 59.103 18.635L61.266 26.33H61.302L63 18.635C63.018 18.509 63.09 18.455 63.216 18.455H65.524C65.652 18.455 65.688 18.527 65.67 18.635L62.508 30.53C62.49 30.637 62.4 30.71 62.274 30.71H60.47ZM71.04 18.636C71.04 18.529 71.113 18.456 71.22 18.456H79.078C79.186 18.456 79.258 18.528 79.258 18.636V20.566C79.258 20.673 79.186 20.746 79.078 20.746H73.798C73.726 20.746 73.69 20.781 73.69 20.853V23.286C73.69 23.358 73.726 23.394 73.798 23.394H78.195C78.303 23.394 78.375 23.466 78.375 23.574V25.484C78.375 25.592 78.303 25.664 78.195 25.664H73.798C73.726 25.664 73.69 25.701 73.69 25.774V28.314C73.69 28.386 73.726 28.421 73.798 28.421H79.078C79.186 28.421 79.258 28.501 79.258 28.609V30.537C79.258 30.647 79.186 30.717 79.078 30.717H71.22C71.113 30.717 71.04 30.647 71.04 30.537V18.637V18.636ZM91.993 30.71C91.831 30.71 91.777 30.656 91.723 30.53L89.613 26.043H87.973C87.903 26.043 87.866 26.079 87.866 26.15V30.53C87.866 30.637 87.794 30.71 87.686 30.71H85.396C85.289 30.71 85.216 30.638 85.216 30.53V18.635C85.216 18.528 85.289 18.455 85.396 18.455H90.281C92.791 18.455 94.451 20.022 94.451 22.257C94.451 23.825 93.621 25.069 92.271 25.663L94.685 30.493C94.739 30.6 94.685 30.709 94.559 30.709H91.999L91.993 30.71ZM91.795 22.258C91.795 21.338 91.145 20.744 90.137 20.744H87.975C87.903 20.744 87.867 20.78 87.867 20.852V23.682C87.867 23.752 87.903 23.789 87.975 23.789H90.137C91.147 23.789 91.795 23.189 91.795 22.251V22.258ZM100.457 18.636C100.457 18.529 100.529 18.456 100.637 18.456H108.494C108.602 18.456 108.674 18.528 108.674 18.636V20.566C108.674 20.673 108.602 20.746 108.494 20.746H103.214C103.142 20.746 103.106 20.781 103.106 20.853V23.286C103.106 23.358 103.142 23.394 103.214 23.394H107.611C107.721 23.394 107.791 23.466 107.791 23.574V25.484C107.791 25.592 107.721 25.664 107.611 25.664H103.221C103.149 25.664 103.111 25.701 103.111 25.774V28.314C103.111 28.386 103.148 28.421 103.221 28.421H108.501C108.608 28.421 108.681 28.501 108.681 28.609V30.537C108.681 30.647 108.608 30.717 108.501 30.717H100.643C100.533 30.717 100.463 30.647 100.463 30.537V18.637L100.457 18.636ZM114.633 18.636C114.633 18.529 114.705 18.456 114.813 18.456H119.373C121.517 18.456 123.013 19.376 123.607 21.213C123.823 21.898 123.932 22.583 123.932 24.583C123.932 26.583 123.824 27.268 123.607 27.953C123.012 29.791 121.517 30.71 119.372 30.71H114.812C114.705 30.71 114.632 30.638 114.632 30.53V18.635L114.633 18.636ZM117.391 28.35H118.781C120.011 28.35 120.749 27.99 121.051 26.998C121.181 26.638 121.251 26.168 121.251 24.583C121.251 22.998 121.181 22.528 121.051 22.168C120.749 21.178 120.011 20.816 118.781 20.816H117.398C117.328 20.816 117.291 20.852 117.291 20.924V28.24C117.291 28.313 117.325 28.35 117.398 28.35H117.391ZM138.231 18.636C138.231 18.529 138.309 18.456 138.411 18.456H143.191C145.859 18.456 147.101 19.771 147.101 21.718C147.101 23.051 146.491 23.88 145.679 24.331V24.371C146.489 24.681 147.319 25.689 147.319 27.148C147.319 29.564 145.715 30.718 143.066 30.718H138.416C138.31 30.718 138.236 30.645 138.236 30.536V18.637L138.231 18.636ZM142.868 23.466C143.878 23.466 144.472 22.926 144.472 22.026C144.472 21.124 143.878 20.601 142.868 20.601H140.994C140.924 20.601 140.884 20.641 140.884 20.711V23.361C140.884 23.431 140.924 23.471 140.994 23.471H142.869L142.868 23.466ZM140.994 28.566H143.012C144.092 28.566 144.672 27.989 144.672 27.034C144.672 26.096 144.094 25.502 143.012 25.502H140.995C140.921 25.502 140.885 25.538 140.885 25.61V28.457C140.885 28.529 140.921 28.565 140.995 28.565L140.994 28.566ZM155.494 30.71C155.384 30.71 155.314 30.638 155.314 30.53V25.826L151.694 18.636C151.657 18.546 151.694 18.456 151.819 18.456H154.162C154.289 18.456 154.379 18.51 154.432 18.636L156.65 23.106H156.704L158.921 18.636C158.94 18.5806 158.977 18.533 159.026 18.5005C159.074 18.468 159.132 18.4523 159.191 18.456H161.461C161.587 18.456 161.641 18.546 161.587 18.636L157.967 25.826V30.529C157.967 30.629 157.895 30.709 157.787 30.709H155.497L155.494 30.71Z" fill="#899C0B"/>
<path d="M191.002 0H411V50H191L191.002 0Z" fill="#57A81B"/>
<path d="M250.543 33L244.955 26.158V33H241.875V17.644H244.955V24.53L250.543 17.644H254.261L247.925 25.256L254.437 33H250.543ZM262.314 19.36C261.772 19.36 261.317 19.1913 260.95 18.854C260.598 18.502 260.422 18.0693 260.422 17.556C260.422 17.0427 260.598 16.6173 260.95 16.28C261.317 15.928 261.772 15.752 262.314 15.752C262.857 15.752 263.304 15.928 263.656 16.28C264.023 16.6173 264.206 17.0427 264.206 17.556C264.206 18.0693 264.023 18.502 263.656 18.854C263.304 19.1913 262.857 19.36 262.314 19.36ZM263.832 20.812V33H260.752V20.812H263.832ZM274.246 30.558H279.306V33H271.166V17.644H274.246V30.558ZM288.633 30.558H293.693V33H285.553V17.644H288.633V30.558ZM309.357 30.074H303.241L302.229 33H298.995L304.517 17.622H308.103L313.625 33H310.369L309.357 30.074ZM308.521 27.61L306.299 21.186L304.077 27.61H308.521ZM325.347 17.644C326.96 17.644 328.376 17.9593 329.593 18.59C330.825 19.2207 331.771 20.1227 332.431 21.296C333.106 22.4547 333.443 23.804 333.443 25.344C333.443 26.884 333.106 28.2333 332.431 29.392C331.771 30.536 330.825 31.4233 329.593 32.054C328.376 32.6847 326.96 33 325.347 33H319.979V17.644H325.347ZM325.237 30.382C326.85 30.382 328.097 29.942 328.977 29.062C329.857 28.182 330.297 26.9427 330.297 25.344C330.297 23.7453 329.857 22.4987 328.977 21.604C328.097 20.6947 326.85 20.24 325.237 20.24H323.059V30.382H325.237ZM341.6 19.36C341.058 19.36 340.603 19.1913 340.236 18.854C339.884 18.502 339.708 18.0693 339.708 17.556C339.708 17.0427 339.884 16.6173 340.236 16.28C340.603 15.928 341.058 15.752 341.6 15.752C342.143 15.752 342.59 15.928 342.942 16.28C343.309 16.6173 343.492 17.0427 343.492 17.556C343.492 18.0693 343.309 18.502 342.942 18.854C342.59 19.1913 342.143 19.36 341.6 19.36ZM343.118 20.812V33H340.038V20.812H343.118Z" fill="white"/>
<path d="M376 12C368.823 12 363 17.8226 363 25C363 32.1774 368.823 38 376 38C383.177 38 389 32.1774 389 25C389 17.8226 383.177 12 376 12ZM375.323 35.4208V27.2665H370.79L377.303 14.5792V22.7335H381.666L375.323 35.4208Z" fill="white"/>
</svg>
